<?xml version="1.0" encoding="utf-8" standalone="yes"?>
<!DOCTYPE svg PUBLIC "-//W3C//DTD SVG 1.1//EN" "http://www.w3.org/Graphics/SVG/1.1/DTD/svg11.dtd">
<svg width="247" height="244" viewBox="0 0 247 244" style="fill:none;stroke:none;fill-rule:evenodd;clip-rule:evenodd;stroke-linecap:round;stroke-linejoin:round;stroke-miterlimit:1.5;" version="1.1" xmlns="http://www.w3.org/2000/svg" xmlns:xlink="http://www.w3.org/1999/xlink"><g id="items" style="isolation: isolate"><g id="blend" style="mix-blend-mode: normal"><g id="g-root-sy_0_cu_1d3mz9t1hvx5a9-fill" data-item-order="-160614" transform="translate(3, 3)"><g id="sy_0_cu_1d3mz9t1hvx5a9-fill" stroke="none" fill="#f99539"><g><path d="M 74.7459 27.5326L 82.0845 10L 98.9759 18.7136L 92.2323 21.1681L 101.2388 45.9132C 107.3121 44.2494 113.706 43.361 120.307 43.361C 126.954 43.361 133.391 44.2618 139.502 45.9479L 148.517 21.1805L 141.84 18.7504L 158.731 10.0368L 166.07 27.5694L 159.326 25.1149L 150.309 49.8903C 162.148 55.3243 172.259 63.8749 179.592 74.4916L 202.435 61.3032L 198.882 55.1501L 217.423 59.3327L 211.775 77.4806L 208.186 71.2656L 185.352 84.4489C 189.812 93.8152 192.307 104.2967 192.307 115.361C 192.307 117.64 192.201 119.895 191.994 122.12L 217.948 126.697L 219.182 119.7L 230.696 134.821L 214.704 145.093L 215.95 138.026L 190.015 133.453C 186.71 146.223 179.989 157.619 170.884 166.606L 187.798 186.763L 193.24 182.196L 192.341 201.181L 173.488 198.77L 178.985 194.157L 162.08 174.011C 151.773 181.365 139.445 186.071 126.091 187.132L 126.091 213.396L 133.196 213.396L 120.304 227.361L 107.4112 213.396L 114.588 213.396L 114.588 187.137C 101.2231 186.087 88.8843 181.387 78.5673 174.035L 61.7017 194.134L 67.1445 198.701L 48.2915 201.112L 47.392 182.127L 52.8895 186.74L 69.7599 166.634C 60.6359 157.639 53.9013 146.226 50.5945 133.434L 24.7582 137.99L 25.9919 144.987L 10 134.716L 21.5144 119.594L 22.7606 126.661L 48.6186 122.102C 48.4126 119.883 48.3073 117.634 48.3073 115.361C 48.3073 104.2659 50.8169 93.7569 55.2995 84.3708L 32.5465 71.2343L 28.994 77.3875L 23.3459 59.2395L 41.8865 55.057L 38.2983 61.2719L 61.0721 74.4204C 68.4256 63.8011 78.5611 55.2549 90.4246 49.8358L 81.4224 25.1026L 74.7459 27.5326Z"></path></g></g></g><g id="g-root-sy_0_cu_1d3mz9t1hvx5a9-stroke" data-item-order="-160614" transform="translate(3, 3)"><g id="sy_0_cu_1d3mz9t1hvx5a9-stroke" fill="none" stroke-linecap="round" stroke-linejoin="round" stroke-miterlimit="4" stroke="#ffffff" stroke-width="2"><g><path d="M 74.7459 27.5326L 82.0845 10L 98.9759 18.7136L 92.2323 21.1681L 101.2388 45.9132C 107.3121 44.2494 113.7059 43.361 120.3073 43.361C 126.9543 43.361 133.391 44.2618 139.502 45.9479L 148.5166 21.1805L 141.84 18.7504L 158.7315 10.0368L 166.07 27.5694L 159.3264 25.1149L 150.3089 49.8903C 162.1477 55.3243 172.2588 63.8749 179.5916 74.4916L 202.4346 61.3032L 198.8821 55.1501L 217.4227 59.3327L 211.7746 77.4806L 208.1864 71.2656L 185.3523 84.4489C 189.8115 93.8152 192.3072 104.2967 192.3072 115.3611C 192.3072 117.6405 192.2013 119.8952 191.9941 122.1205L 217.948 126.6969L 219.1818 119.6998L 230.6962 134.8215L 214.7043 145.0931L 215.9504 138.0257L 190.0153 133.4527C 186.7103 146.2234 179.9886 157.6189 170.8837 166.6058L 187.7976 186.7631L 193.2404 182.196L 192.3409 201.1813L 173.4879 198.7703L 178.9853 194.1574L 162.0804 174.011C 151.7732 181.3655 139.4454 186.0706 126.0913 187.1321L 126.0913 213.3961L 133.1963 213.3961L 120.3038 227.3615L 107.4112 213.3961L 114.5877 213.3961L 114.5877 187.1372C 101.2231 186.0869 88.8843 181.3874 78.5673 174.0347L 61.7017 194.1342L 67.1445 198.7013L 48.2915 201.1122L 47.392 182.1269L 52.8895 186.7399L 69.7599 166.6345C 60.6359 157.6389 53.9013 146.2261 50.5945 133.4345L 24.7582 137.9901L 25.992 144.9872L 10 134.7156L 21.5144 119.5939L 22.7606 126.6613L 48.6186 122.1018C 48.4126 119.8826 48.3073 117.6341 48.3073 115.3611C 48.3073 104.2659 50.8169 93.7569 55.2995 84.3708L 32.5465 71.2343L 28.994 77.3875L 23.3459 59.2395L 41.8865 55.057L 38.2983 61.2719L 61.0721 74.4204C 68.4256 63.8011 78.5611 55.2549 90.4246 49.8358L 81.4224 25.1026L 74.7459 27.5326Z"></path></g></g></g></g></g></svg>