<?xml version="1.0" encoding="utf-8" standalone="yes"?>
<!DOCTYPE svg PUBLIC "-//W3C//DTD SVG 1.1//EN" "http://www.w3.org/Graphics/SVG/1.1/DTD/svg11.dtd">
<svg width="98" height="98" viewBox="0 0 98 98" style="fill:none;stroke:none;fill-rule:evenodd;clip-rule:evenodd;stroke-linecap:round;stroke-linejoin:round;stroke-miterlimit:1.5;" version="1.1" xmlns="http://www.w3.org/2000/svg" xmlns:xlink="http://www.w3.org/1999/xlink"><g id="items" style="isolation: isolate"><g id="blend" style="mix-blend-mode: normal"><g id="g-root-ic_sett_zitclt1hvyi9v-fill" data-item-order="0" transform="translate(3, 3)"></g><g id="g-root-ic_sett_zitclt1hvyi9v-stroke" data-item-order="0" transform="translate(3, 3)"><g id="ic_sett_zitclt1hvyi9v-stroke" fill="none" stroke-linecap="round" stroke-linejoin="round" stroke-miterlimit="4" stroke="#ffffff" stroke-width="2"><g><path d="M 64.1026 43.344402C 64.1026 42.222702 64.024597 41.118999 63.873398 40.038998L 67.200996 36.040657C 68.808701 34.108688 69.042099 31.379351 67.785095 29.20261L 66.408401 26.817909C 65.151703 24.641171 62.671303 23.478458 60.194199 23.904881L 55.069298 24.787149C 53.360199 23.4496 51.460602 22.344009 49.4179 21.51754L 47.621498 16.643801C 46.752098 14.28538 44.5051 12.71875 41.991699 12.71875L 39.238029 12.71875C 36.724571 12.71875 34.477478 14.28538 33.608261 16.64377L 31.81336 21.513639C 29.77042 22.338612 27.869621 23.44252 26.15851 24.778509L 21.042009 23.897709C 18.56497 23.471291 16.08469 24.633999 14.82796 26.81074L 13.45114 29.19544C 12.194401 31.372181 12.427615 34.101521 14.035419 36.033489L 17.345261 40.010498C 17.19445 41.086899 17.11648 42.187 17.11648 43.305401L 17.11648 43.344402C 17.11648 44.440598 17.19154 45.519402 17.33683 46.576L 14.03077 50.548599C 12.422947 52.480598 12.189734 55.209999 13.44646 57.386497L 14.82328 59.771202C 16.080009 61.947998 18.56032 63.110802 21.037361 62.684196L 26.08573 61.815102C 27.82201 63.182503 29.756351 64.310196 31.83931 65.148102L 33.607422 69.945404C 34.476639 72.303703 36.723732 73.8703 39.237221 73.8703L 41.990799 73.8703C 43.2994 73.8703 44.535698 73.445801 45.542801 72.706001M 29.45899 43.302399C 29.45899 49.458397 34.443249 54.461201 40.617699 54.461201C 46.773701 54.461201 51.776501 49.477001 51.776501 43.302399C 51.776501 37.127861 46.792301 32.125 40.617699 32.125C 34.461849 32.125 29.45899 37.109261 29.45899 43.283798L 29.45899 43.302399ZM 60.201996 59.709999L 73.360001 59.709999C 73.360001 59.709999 79.360001 59.709999 79.360001 65.709999L 79.360001 73.281998C 79.360001 73.281998 79.360001 79.281998 73.360001 79.281998L 60.201996 79.281998C 60.201996 79.281998 54.202 79.281998 54.202 73.281998L 54.202 65.709999C 54.202 65.709999 54.202 59.709999 60.201996 59.709999M 10 10M 66.777405 51.991299L 66.777405 59.710899M 10 10M 62.6581 67.756897L 62.6581 71.242302M 10 10M 70.902405 67.756897L 70.902405 71.242302"></path></g></g></g></g></g></svg>