<?xml version="1.0" encoding="utf-8" standalone="yes"?>
<!DOCTYPE svg PUBLIC "-//W3C//DTD SVG 1.1//EN" "http://www.w3.org/Graphics/SVG/1.1/DTD/svg11.dtd">
<svg width="74" height="74" viewBox="0 0 74 74" style="fill:none;stroke:none;fill-rule:evenodd;clip-rule:evenodd;stroke-linecap:round;stroke-linejoin:round;stroke-miterlimit:1.5;" version="1.1" xmlns="http://www.w3.org/2000/svg" xmlns:xlink="http://www.w3.org/1999/xlink"><g id="items" style="isolation: isolate"><g id="blend" style="mix-blend-mode: normal"><g id="g-root-ic_sett_v5hqtt1hw1de5-fill" data-item-order="0" transform="translate(3, 3)"></g><g id="g-root-ic_sett_v5hqtt1hw1de5-stroke" data-item-order="0" transform="translate(3, 3)"><g id="ic_sett_v5hqtt1hw1de5-stroke" fill="none" stroke-linecap="round" stroke-linejoin="round" stroke-miterlimit="4" stroke="#de58a9" stroke-width="2"><g><path d="M 42.625999 44.063999C 42.626003 45.651268 43.912735 46.938004 45.5 46.938004C 47.087269 46.938004 48.374001 45.651268 48.374001 44.064003C 48.374001 42.476734 47.087269 41.190002 45.5 41.190002C 43.912735 41.190002 42.626003 42.476734 42.626003 44.064003ZM 47.942001 32.942001L 48.790001 35.725998C 49.078423 36.685448 50.061653 37.256668 51.038002 37.031998L 53.862 36.377998C 54.9599 36.1287 56.091988 36.624779 56.652889 37.60096C 57.213787 38.577141 57.072266 39.805016 56.303997 40.627998L 54.327999 42.757999C 53.646465 43.495296 53.646465 44.632706 54.328003 45.370003L 56.304001 47.498001C 57.071003 48.321571 57.211845 49.548817 56.65136 50.524734C 56.09087 51.500656 54.959873 51.997459 53.862 51.75L 51.037998 51.096001C 50.065556 50.877083 49.089058 51.446053 48.799999 52.400002L 47.952 55.183998C 47.627914 56.261845 46.635513 56.999741 45.509998 56.999741C 44.384487 56.999741 43.392086 56.261845 43.068001 55.183998L 42.209999 52.400002C 41.921577 51.440552 40.938347 50.869335 39.961998 51.094002L 37.138 51.748001C 36.040127 51.995461 34.90913 51.498657 34.34864 50.522736C 33.788155 49.546818 33.928997 48.319572 34.695999 47.495998L 36.672001 45.368C 37.353539 44.630707 37.353539 43.493298 36.672001 42.756001L 34.695999 40.625999C 33.927731 39.803017 33.786209 38.575138 34.347111 37.598961C 34.908012 36.62278 36.040096 36.126701 37.138 36.375999L 39.961998 37.029999C 40.938347 37.254669 41.921577 36.683449 42.209999 35.723999L 43.057999 32.940002C 43.382526 31.862288 44.375229 31.124798 45.500744 31.125257C 46.626255 31.125719 47.618355 31.864023 47.942001 32.942001ZM 52.661999 30.954C 52.879848 29.984232 52.993164 28.993912 53 28C 53 18.612 43.599998 11 32 11C 20.4 11 11 18.612 11 28C 11.105418 32.681793 13.324568 37.064209 17.035999 39.919998L 13 49L 24.274 43.799999C 25.816757 44.285152 27.4028 44.620045 29.01 44.799999"></path></g></g></g></g></g></svg>