<?xml version="1.0" encoding="utf-8" standalone="yes"?>
<!DOCTYPE svg PUBLIC "-//W3C//DTD SVG 1.1//EN" "http://www.w3.org/Graphics/SVG/1.1/DTD/svg11.dtd">
<svg width="74" height="74" viewBox="0 0 74 74" style="fill:none;stroke:none;fill-rule:evenodd;clip-rule:evenodd;stroke-linecap:round;stroke-linejoin:round;stroke-miterlimit:1.5;" version="1.1" xmlns="http://www.w3.org/2000/svg" xmlns:xlink="http://www.w3.org/1999/xlink"><g id="items" style="isolation: isolate"><g id="blend" style="mix-blend-mode: normal"><g id="g-root-ic_cale_1hgyl1t1hw2qyz-fill" data-item-order="0" transform="translate(3, 3)"></g><g id="g-root-ic_cale_1hgyl1t1hw2qyz-stroke" data-item-order="0" transform="translate(3, 3)"><g id="ic_cale_1hgyl1t1hw2qyz-stroke" fill="none" stroke-linecap="round" stroke-linejoin="round" stroke-miterlimit="4" stroke="#ffe711" stroke-width="2"><g><path d="M 22.438 25.360001L 22.438 19.26C 22.441311 17.016754 24.26075 15.199997 26.504 15.2L 52.933998 15.2C 55.177246 15.199997 56.996689 17.016754 57 19.259998L 57 45.689999C 57 47.935589 55.179588 49.756001 52.933998 49.756001L 41.751999 49.756001M 22.438 23.326L 57 23.326M 39.720001 30.950001L 48.34 30.950001L 41.444 42.158001M 30.969999 11.128L 30.969999 18.792M 48.467999 11.128L 48.467999 18.792M 39.720001 11.128L 39.720001 18.792M 20.147999 43.147999C 20.147757 44.832638 21.513359 46.198441 23.198 46.198441C 24.882641 46.198441 26.248243 44.832638 26.247999 43.147999C 26.248243 41.463356 24.882641 40.097557 23.198 40.097557C 21.513359 40.097557 20.147757 41.463356 20.147999 43.147999M 25.788 31.351999L 26.688 34.304001C 26.994715 35.321869 28.037865 35.927826 29.073999 35.690002L 32.073997 34.996002C 33.240116 34.727833 34.444618 35.25264 35.042229 36.289268C 35.639843 37.325897 35.490417 38.631237 34.673996 39.505997L 32.580002 41.764C 31.856089 42.545444 31.856089 43.75256 32.580002 44.534004L 34.658001 46.799999C 35.471016 47.673649 35.620125 48.975002 35.025803 50.009911C 34.431473 51.044819 33.23233 51.571896 32.068001 51.309998L 29.068001 50.616001C 28.034439 50.381554 26.995428 50.985752 26.688 52L 25.788 54.953999C 25.444916 56.097809 24.392157 56.881134 23.198 56.881134C 22.003841 56.881134 20.951084 56.097809 20.608 54.953999L 19.708 52C 19.408005 50.97678 18.363739 50.363537 17.323999 50.599998L 14.323999 51.293999C 13.166933 51.543537 11.981233 51.01672 11.390873 49.990784C 10.800514 48.964844 10.940838 47.674988 11.738 46.799999L 13.834 44.542C 14.555983 43.759804 14.555983 42.554199 13.834 41.772003L 11.738 39.506001C 10.921582 38.631237 10.772155 37.325897 11.369768 36.289268C 11.967382 35.25264 13.171882 34.727833 14.337999 34.995998L 17.337999 35.690002C 18.37347 35.926636 19.415321 35.32093 19.722 34.304001L 20.622 31.351999C 20.972599 30.219757 22.019718 29.447828 23.205 29.447828C 24.390282 29.447828 25.437399 30.219757 25.787998 31.351999Z"></path></g></g></g></g></g></svg>