<?xml version="1.0" encoding="utf-8" standalone="yes"?>
<!DOCTYPE svg PUBLIC "-//W3C//DTD SVG 1.1//EN" "http://www.w3.org/Graphics/SVG/1.1/DTD/svg11.dtd">
<svg width="75" height="74" viewBox="0 0 75 74" style="fill:none;stroke:none;fill-rule:evenodd;clip-rule:evenodd;stroke-linecap:round;stroke-linejoin:round;stroke-miterlimit:1.5;" version="1.1" xmlns="http://www.w3.org/2000/svg" xmlns:xlink="http://www.w3.org/1999/xlink"><g id="items" style="isolation: isolate"><g id="blend" style="mix-blend-mode: normal"><g id="g-root-ic_lock_14306c11hvyk25-fill" data-item-order="0" transform="translate(3, 3)"></g><g id="g-root-ic_lock_14306c11hvyk25-stroke" data-item-order="0" transform="translate(3, 3)"><g id="ic_lock_14306c11hvyk25-stroke" fill="none" stroke-linecap="round" stroke-linejoin="round" stroke-miterlimit="4" stroke="#e55753" stroke-width="2"><g><path d="M 39 32.982002L 39 20.982L 17 20.982L 17 46.98L 33 46.981998M 45 26.982L 45 16.982C 45 15.87743 44.104568 14.982 43 14.982L 34.104 14.982C 33.043873 12.558297 30.649412 10.992139 28.004 10.992139C 25.358589 10.992139 22.964127 12.558297 21.903999 14.982L 13 14.982C 11.895431 14.982 11 15.87743 11 16.982L 11 50.981998C 11 52.086571 11.895431 52.981998 13 52.981998L 33 52.981998M 23 26.982L 33 26.982M 23 32.982002L 33 32.982002M 23 38.982002L 33 38.982002M 41 40.984001L 55 40.984001C 55 40.984001 57 40.984001 57 42.984001L 57 54.981998C 57 54.981998 57 56.981998 55 56.981998L 41 56.981998C 41 56.981998 39 56.981998 39 54.981998L 39 42.984001C 39 42.984001 39 40.984001 41 40.984001M 45.5 49.108002C 45.5 50.488712 46.619289 51.608002 48 51.608002C 49.380711 51.608002 50.5 50.488712 50.5 49.108002C 50.5 47.727287 49.380711 46.608002 48 46.608002C 46.619289 46.608002 45.5 47.727287 45.5 49.108002M 53 37.982002C 53 35.220577 50.761425 32.982002 48 32.982002C 45.238575 32.982002 43 35.220577 43 37.982002L 43 40.982002L 53 40.982002Z"></path></g></g></g></g></g></svg>