<?xml version="1.0" encoding="utf-8" standalone="yes"?>
<!DOCTYPE svg PUBLIC "-//W3C//DTD SVG 1.1//EN" "http://www.w3.org/Graphics/SVG/1.1/DTD/svg11.dtd">
<svg width="74" height="74" viewBox="0 0 74 74" style="fill:none;stroke:none;fill-rule:evenodd;clip-rule:evenodd;stroke-linecap:round;stroke-linejoin:round;stroke-miterlimit:1.5;" version="1.1" xmlns="http://www.w3.org/2000/svg" xmlns:xlink="http://www.w3.org/1999/xlink"><g id="items" style="isolation: isolate"><g id="blend" style="mix-blend-mode: normal"><g id="g-root-ic_smar_dfgoi91hvzw1t-fill" data-item-order="0" transform="translate(3, 3)"></g><g id="g-root-ic_smar_dfgoi91hvzw1t-stroke" data-item-order="0" transform="translate(3, 3)"><g id="ic_smar_dfgoi91hvzw1t-stroke" fill="none" stroke-linecap="round" stroke-linejoin="round" stroke-miterlimit="4" stroke="#92bd39" stroke-width="2"><g><path d="M 33.492001 47.950001L 29.492001 47.950001C 26.178291 47.950001 23.492001 45.26371 23.492001 41.950001L 23.492001 36.950001M 19.492001 39.950001L 23.492001 35.950001L 27.492001 39.950001M 44.757999 32.950001L 54.757999 32.950001C 54.757999 32.950001 56.757999 32.950001 56.757999 34.950001L 56.757999 54.950001C 56.757999 54.950001 56.757999 56.950001 54.757999 56.950001L 44.757999 56.950001C 44.757999 56.950001 42.757999 56.950001 42.757999 54.950001L 42.757999 34.950001C 42.757999 34.950001 42.757999 32.950001 44.757999 32.950001M 56.757999 50.950001L 42.757999 50.950001M 35.242001 13.05L 35.242001 27.050001C 35.242001 27.050001 35.242001 29.050001 33.242001 29.050001L 13.242001 29.050001C 13.242001 29.050001 11.242 29.050001 11.242 27.050001L 11.242 13.05C 11.242 13.05 11.242 11.05 13.242001 11.05L 33.242001 11.05C 33.242001 11.05 35.242001 11.05 35.242001 13.05M 35.242001 17.049999L 11.242 17.049999M 28.242001 24.049999L 31.242001 24.049999"></path></g></g></g></g></g></svg>