<?xml version="1.0" encoding="utf-8" standalone="yes"?>
<!DOCTYPE svg PUBLIC "-//W3C//DTD SVG 1.1//EN" "http://www.w3.org/Graphics/SVG/1.1/DTD/svg11.dtd">
<svg width="74" height="74" viewBox="0 0 74 74" style="fill:none;stroke:none;fill-rule:evenodd;clip-rule:evenodd;stroke-linecap:round;stroke-linejoin:round;stroke-miterlimit:1.5;" version="1.1" xmlns="http://www.w3.org/2000/svg" xmlns:xlink="http://www.w3.org/1999/xlink"><g id="items" style="isolation: isolate"><g id="blend" style="mix-blend-mode: normal"><g id="g-root-ic_voic_4otgy91hvzw97-fill" data-item-order="0" transform="translate(3, 3)"></g><g id="g-root-ic_voic_4otgy91hvzw97-stroke" data-item-order="0" transform="translate(3, 3)"><g id="ic_voic_4otgy91hvzw97-stroke" fill="none" stroke-linecap="round" stroke-linejoin="round" stroke-miterlimit="4" stroke="#de8431" stroke-width="2"><g><path d="M 26.65344 37.636803C 29.10256 40.290001 32.776199 41.922798 36.653999 41.922798C 38.695 41.922798 40.531799 41.514603 42.1646 40.6982M 34 49.5C 38.528603 49.5 42.200001 45.8288 42.200001 41.299999C 42.200001 36.771202 38.528603 33.099998 34 33.099998C 29.47118 33.099998 25.799919 36.771202 25.799919 41.299999C 25.799919 45.8288 29.47118 49.5 34 49.5ZM 43.599998 56.5C 41 54.5 37.599998 53.099998 34 53.099998C 30.4 53.099998 27.000019 54.299999 24.400021 56.5M 27.5 25.5C 27.5 26.700001 26.700001 27.5 25.5 27.5L 13.5 27.5C 12.3 27.5 11.5 26.700001 11.5 25.5L 11.5 13.5C 11.5 12.3 12.3 11.5 13.5 11.5L 25.5 11.5C 26.700001 11.5 27.5 12.3 27.5 13.5L 27.5 25.5ZM 16.90004 17.4998C 17.783699 17.4998 18.50004 16.783461 18.50004 15.899799C 18.50004 15.01614 17.783699 14.2998 16.90004 14.2998C 16.01638 14.2998 15.300039 15.01614 15.300039 15.899799C 15.300039 16.783461 16.01638 17.4998 16.90004 17.4998ZM 10 10M 27.499981 24.10006L 24.69998 19.90004C 24.499981 19.50004 23.899979 19.300041 23.499981 19.300041C 22.899979 19.300041 22.499981 19.50004 22.29998 19.90004L 17.099979 27.500059M 32.299999 19.99992L 35.5 19.99992C 35.700001 19.99992 35.900002 19.79994 35.900002 19.79994L 37.099998 17.19994C 37.273399 16.78108 37.8204 16.92952 37.900002 17.39994L 40.5 26.599939C 40.700001 26.999941 40.900002 27.19994 41.299999 27.19994C 41.700001 27.19994 42.099998 26.79994 42.099998 26.39994L 44.700001 13.39994C 44.890598 12.453 46.015598 12.18752 46.299999 13.19994L 48.900002 21.99992C 49.002201 22.39768 49.405201 22.69408 49.700001 22.19994L 51.900002 19.19994C 51.900002 18.999939 52.099998 18.99992 52.299999 18.99992L 54.5 18.99992"></path></g></g></g></g></g></svg>