<?xml version="1.0" encoding="utf-8" standalone="yes"?>
<!DOCTYPE svg PUBLIC "-//W3C//DTD SVG 1.1//EN" "http://www.w3.org/Graphics/SVG/1.1/DTD/svg11.dtd">
<svg width="74" height="74" viewBox="0 0 74 74" style="fill:none;stroke:none;fill-rule:evenodd;clip-rule:evenodd;stroke-linecap:round;stroke-linejoin:round;stroke-miterlimit:1.5;" version="1.1" xmlns="http://www.w3.org/2000/svg" xmlns:xlink="http://www.w3.org/1999/xlink"><g id="items" style="isolation: isolate"><g id="blend" style="mix-blend-mode: normal"><g id="g-root-ic_user_1hbyscx1hw2rk9-fill" data-item-order="0" transform="translate(3, 3)"></g><g id="g-root-ic_user_1hbyscx1hw2rk9-stroke" data-item-order="0" transform="translate(3, 3)"><g id="ic_user_1hbyscx1hw2rk9-stroke" fill="none" stroke-linecap="round" stroke-linejoin="round" stroke-miterlimit="4" stroke="#de8431" stroke-width="2"><g><path d="M 42 40C 50.759998 41.239998 57 44.459999 57 48.220001C 57 53.080002 46.700001 57 34 57C 21.299999 57 11 53.080002 11 48.220001C 11 44.459999 17.24 41.239998 26 40M 42 45C 46.779999 45.66 50 46.880001 50 48.279999C 50 50.279999 42.84 52.060001 34 52.060001C 25.16 52.060001 18 50.360001 18 48.279999C 18 46.880001 21.220001 45.66 26 45M 28.5 16.5C 28.5 19.537567 30.962435 22 34 22C 37.037567 22 39.5 19.537567 39.5 16.5C 39.5 13.462434 37.037567 11 34 11C 30.962435 11 28.5 13.462434 28.5 16.5M 37 48L 37.84 37L 41 37L 41 31C 41 27.134008 37.865993 24 34 24C 30.134008 24 27.000002 27.134008 27.000002 31L 27 37L 30.16 37L 31 48"></path></g></g></g></g></g></svg>