<?xml version="1.0" encoding="utf-8" standalone="yes"?>
<!DOCTYPE svg PUBLIC "-//W3C//DTD SVG 1.1//EN" "http://www.w3.org/Graphics/SVG/1.1/DTD/svg11.dtd">
<svg width="74" height="74" viewBox="0 0 74 74" style="fill:none;stroke:none;fill-rule:evenodd;clip-rule:evenodd;stroke-linecap:round;stroke-linejoin:round;stroke-miterlimit:1.5;" version="1.1" xmlns="http://www.w3.org/2000/svg" xmlns:xlink="http://www.w3.org/1999/xlink"><g id="items" style="isolation: isolate"><g id="blend" style="mix-blend-mode: normal"><g id="g-root-ic_docu_hssaa91hw44cl-fill" data-item-order="0" transform="translate(3, 3)"></g><g id="g-root-ic_docu_hssaa91hw44cl-stroke" data-item-order="0" transform="translate(3, 3)"><g id="ic_docu_hssaa91hw44cl-stroke" fill="none" stroke-linecap="round" stroke-linejoin="round" stroke-miterlimit="4" stroke="#de8431" stroke-width="2"><g><path d="M 35 39C 35 40.104568 34.104568 41 33 41L 12.493999 41C 11.665573 41 10.994 40.32843 10.994 39.5L 10.994 16.5C 10.994 15.671574 11.665573 15 12.493999 15L 33.493999 15C 34.322426 15 34.994003 15.671574 34.994003 16.5ZM 16.993999 18L 16.993999 11M 22.993999 18L 22.993999 11M 28.993999 18L 28.993999 11M 49 31L 49 22C 49 19.790861 47.209141 18 45 18L 41 18M 43.993999 26L 48.993999 31L 53.993999 26M 42.523998 39.228001C 45.637867 42.44054 50.41011 43.400558 54.523998 41.641998M 41.608002 42.507999C 41.608002 46.097851 44.51815 49.007999 48.108002 49.007999C 51.697853 49.007999 54.608002 46.097851 54.608002 42.507999C 54.608002 38.918152 51.697853 36.008003 48.108002 36.008003C 44.51815 36.008003 41.608002 38.918152 41.608002 42.507999M 57 57C 55.019325 53.954552 51.632877 52.117348 48 52.117348C 44.367119 52.117348 40.980675 53.954552 39 57M 24.993999 23L 16.993999 23M 26.993999 29L 16.993999 29M 28.993999 35L 16.993999 35"></path></g></g></g></g></g></svg>