<?xml version="1.0" encoding="utf-8" standalone="yes"?>
<!DOCTYPE svg PUBLIC "-//W3C//DTD SVG 1.1//EN" "http://www.w3.org/Graphics/SVG/1.1/DTD/svg11.dtd">
<svg width="74" height="74" viewBox="0 0 74 74" style="fill:none;stroke:none;fill-rule:evenodd;clip-rule:evenodd;stroke-linecap:round;stroke-linejoin:round;stroke-miterlimit:1.5;" version="1.1" xmlns="http://www.w3.org/2000/svg" xmlns:xlink="http://www.w3.org/1999/xlink"><g id="items" style="isolation: isolate"><g id="blend" style="mix-blend-mode: normal"><g id="g-root-ic_star_1qeh0k11hvyk93-fill" data-item-order="0" transform="translate(3, 3)"></g><g id="g-root-ic_star_1qeh0k11hvyk93-stroke" data-item-order="0" transform="translate(3, 3)"><g id="ic_star_1qeh0k11hvyk93-stroke" fill="none" stroke-linecap="round" stroke-linejoin="round" stroke-miterlimit="4" stroke="#ba5de5" stroke-width="2"><g><path d="M 32.788002 56.826L 13.076 56.826C 11.929457 56.826 11 55.896542 11 54.75L 11 13.25C 11 12.103456 11.929457 11.174 13.076 11.174L 44.200001 11.174C 45.346542 11.174 46.276001 12.103456 46.276001 13.25L 46.276001 29.85M 47.846001 36.658001L 50.506001 43.681999L 55.683998 43.681999C 56.21936 43.661011 56.710312 43.978256 56.911148 44.474964C 57.11198 44.971672 56.9795 45.540993 56.579998 45.897999L 52.085999 49.032001L 54.576 54.75C 54.800865 55.287334 54.657436 55.908249 54.219688 56.292526C 53.781937 56.676804 53.147675 56.738583 52.643997 56.445999L 46.625999 53.062L 40.599998 56.445999C 40.096321 56.738583 39.462059 56.676804 39.024307 56.292526C 38.586555 55.908249 38.44313 55.287334 38.667999 54.749996L 41.158001 49.032001L 36.664001 45.897999C 36.263386 45.542881 36.128967 44.974415 36.328102 44.477478C 36.527237 43.980537 37.017014 43.662205 37.552002 43.681999L 42.731998 43.681999L 45.400002 36.658001C 45.636036 36.200226 46.107956 35.912594 46.623001 35.912594C 47.138046 35.912594 47.609966 36.200226 47.846001 36.658001ZM 25.186001 26.01C 25.185537 27.922335 26.735662 29.472836 28.647999 29.472836C 30.560335 29.472836 32.110458 27.922335 32.110001 26.009998C 32.110458 24.097664 30.560335 22.547161 28.647999 22.547161C 26.735662 22.547161 25.185537 24.097664 25.185999 26.009998M 34.865997 37.014C 34.141106 34.171181 31.58079 32.181801 28.647001 32.181801C 25.713215 32.181801 23.152901 34.171181 22.428001 37.014M 17.77 28.076C 17.768602 34.08474 22.639259 38.956532 28.648001 38.956532C 34.656742 38.956532 39.527397 34.08474 39.526001 28.076C 39.527397 22.067257 34.656742 17.195469 28.648001 17.195469C 22.639259 17.195469 17.768602 22.067257 17.77 28.076M 17.714001 50.316002L 29.125999 50.316002M 21.040001 44.636002L 29.125999 44.636002"></path></g></g></g></g></g></svg>