<?xml version="1.0" encoding="utf-8" standalone="yes"?>
<!DOCTYPE svg PUBLIC "-//W3C//DTD SVG 1.1//EN" "http://www.w3.org/Graphics/SVG/1.1/DTD/svg11.dtd">
<svg width="74" height="74" viewBox="0 0 74 74" style="fill:none;stroke:none;fill-rule:evenodd;clip-rule:evenodd;stroke-linecap:round;stroke-linejoin:round;stroke-miterlimit:1.5;" version="1.1" xmlns="http://www.w3.org/2000/svg" xmlns:xlink="http://www.w3.org/1999/xlink"><g id="items" style="isolation: isolate"><g id="blend" style="mix-blend-mode: normal"><g id="g-root-ic_grap_74jkh1hw1bf3-fill" data-item-order="0" transform="translate(3, 3)"></g><g id="g-root-ic_grap_74jkh1hw1bf3-stroke" data-item-order="0" transform="translate(3, 3)"><g id="ic_grap_74jkh1hw1bf3-stroke" fill="none" stroke-linecap="round" stroke-linejoin="round" stroke-miterlimit="4" stroke="#1eabda" stroke-width="2"><g><path d="M 37 24C 37 27.865993 40.13401 31 44 31C 47.865993 31 51 27.865993 51 24C 51 20.134007 47.865993 17 44 17C 40.13401 17 37 20.134007 37 24M 17 51L 21.4 44.834C 21.556288 44.615219 21.794092 44.46859 22.059757 44.427197C 22.32542 44.385807 22.596561 44.453136 22.812 44.613998L 25.200001 46.400002C 25.641827 46.731369 26.268629 46.641827 26.6 46.200001L 32 39M 45.501999 17.162001L 44 24L 50.948002 23.15M 40 37L 50 37C 50 37 51 37 51 38L 51 50C 51 50 51 51 50 51L 40 51C 40 51 39 51 39 50L 39 38C 39 38 39 37 40 37M 43 43L 47 43M 43 47L 45 47M 18 17L 28 17C 28 17 29 17 29 18L 29 30C 29 30 29 31 28 31L 18 31C 18 31 17 31 17 30L 17 18C 17 18 17 17 18 17M 21 21L 25 21M 21 25L 23 25M 13 11L 55 11C 55 11 57 11 57 13L 57 55C 57 55 57 57 55 57L 13 57C 13 57 11 57 11 55L 11 13C 11 13 11 11 13 11"></path></g></g></g></g></g></svg>